<?xml version="1.0" standalone="no"?>
<!DOCTYPE svg PUBLIC "-//W3C//DTD SVG 20010904//EN"
 "http://www.w3.org/TR/2001/REC-SVG-20010904/DTD/svg10.dtd">
<svg version="1.0" xmlns="http://www.w3.org/2000/svg"
 width="957.000000pt" height="261.000000pt" viewBox="0 0 957.000000 261.000000"
 preserveAspectRatio="xMidYMid meet">

<g transform="translate(0.000000,261.000000) scale(0.100000,-0.100000)"
stroke="none">
<!-- Forma superior do logo (verde) -->
<path fill="#2E8057" d="M1100 2564 c-269 -72 -443 -299 -443 -579 -1 -95 26 -213 49 -222 7
-2 45 29 86 69 84 85 145 120 254 148 131 34 259 21 381 -36 76 -37 182 -139
223 -216 53 -100 59 -100 105 -8 48 96 66 169 66 275 1 152 -54 293 -154 402
-135 145 -379 217 -567 167z"/>
<!-- Letra S (verde) -->
<path fill="#2E8057" d="M3620 2195 c-154 -29 -253 -74 -348 -160 -140 -127 -211 -298 -228
-550 -13 -195 28 -320 144 -434 119 -118 225 -162 629 -260 177 -43 218 -60
228 -92 40 -125 -451 -94 -784 50 l-91 39 0 -148 0 -147 88 -26 c395 -117 786
-125 1001 -20 175 85 243 291 133 406 -68 71 -178 112 -477 177 -162 35 -278
69 -305 89 -38 27 -35 81 5 101 45 22 240 18 400 -9 132 -23 356 -76 388 -93
13 -7 17 -5 17 10 0 11 18 235 40 498 22 263 40 489 40 501 0 19 -9 24 -72 37
-190 41 -660 59 -808 31z"/>
<!-- Letra C (verde) -->
<path fill="#2E8057" d="M5260 2181 c-111 -24 -197 -61 -296 -127 -100 -66 -176 -146 -237
-250 -112 -192 -149 -393 -116 -630 13 -94 56 -237 69 -229 6 3 7 0 4 -8 -14
-39 109 -228 213 -328 174 -166 371 -240 638 -240 230 0 414 56 616 186 37 24
69 48 73 53 3 6 -19 40 -49 75 l-56 65 -53 -23 c-254 -112 -638 -133 -773 -42
-132 89 -169 246 -90 378 60 99 161 143 295 127 78 -9 135 -40 190 -103 41
-47 72 -117 72 -165 0 -15 2 -29 5 -32 9 -9 605 70 619 82 12 11 34 122 41
210 14 161 -34 405 -109 546 -85 162 -215 293 -372 376 -143 75 -208 90 -419
94 -149 3 -195 1 -265 -15z"/>
<!-- Letra A (verde) -->
<path fill="#2E8057" d="M6961 2058 c-46 -134 -160 -467 -270 -788 -177 -515 -291 -852 -291
-858 0 -4 80 -6 177 -6 l176 1 34 67 33 66 239 0 239 0 39 -67 38 -66 417 -1
c230 -1 418 2 418 5 0 3 -21 61 -46 130 -25 68 -65 180 -89 249 -41 119 -129
363 -217 605 -22 61 -63 178 -93 260 -29 83 -80 229 -115 325 -34 96 -63 181
-66 188 -2 9 -70 12 -292 12 l-289 0 -42 -122z m99 -1098 c0 -5 30 -60 66
-121 36 -61 64 -113 61 -115 -6 -6 -257 -7 -263 -1 -8 7 116 247 127 247 5 0
9 -4 9 -10z"/>
<!-- Letra E (verde) -->
<path fill="#2E8057" d="M8264 2083 c3 -54 8 -339 11 -633 3 -294 8 -650 11 -790 l7 -255 608
0 609 0 0 123 0 122 -445 0 -445 0 0 80 c0 69 2 80 18 80 9 0 173 1 365 1
l347 0 0 99 0 100 -366 0 -367 0 7 61 c3 34 6 70 6 80 0 18 19 19 450 19 l450
0 0 505 0 505 -636 0 -636 0 6 -97z"/>
<!-- Forma direita do logo (vermelha) -->
<path fill="#C62828" d="M2080 2113 c-96 -17 -194 -62 -185 -85 3 -7 25 -25 49 -41 63 -40
140 -125 175 -195 43 -85 61 -162 61 -258 0 -184 -89 -343 -253 -453 -26 -18
-47 -38 -45 -44 6 -21 110 -66 188 -83 139 -29 319 7 441 88 158 106 259 296
259 488 0 324 -271 594 -590 589 -41 -1 -86 -4 -100 -6z"/>
<!-- Forma esquerda do logo (verde) -->
<path fill="#2E8057" d="M490 1669 c-30 -5 -97 -30 -149 -54 -374 -180 -443 -666 -136 -953
121 -113 250 -158 434 -150 88 4 118 10 176 34 40 17 71 36 73 46 2 10 -13 25
-40 41 -50 29 -158 138 -181 184 -51 98 -83 240 -72 322 23 174 89 290 222
388 40 29 73 58 73 64 0 16 -101 58 -177 74 -75 16 -140 17 -223 4z"/>
<!-- Forma inferior do logo (verde) -->
<path fill="#2E8057" d="M1086 917 c-49 -84 -67 -150 -73 -272 -17 -333 240 -604 574 -605
100 0 164 15 263 62 207 99 340 320 328 548 -5 96 -34 209 -55 217 -9 4 -38
-20 -78 -63 -106 -117 -221 -171 -380 -181 -102 -6 -183 10 -274 54 -72 35
-178 137 -225 217 -21 36 -42 66 -47 66 -4 0 -19 -19 -33 -43z"/>
</g>
</svg>
