<?xml version="1.0" standalone="no"?>
<!DOCTYPE svg PUBLIC "-//W3C//DTD SVG 20010904//EN"
 "http://www.w3.org/TR/2001/REC-SVG-20010904/DTD/svg10.dtd">
<svg version="1.0" xmlns="http://www.w3.org/2000/svg"
 width="2048.000000pt" height="511.000000pt" viewBox="0 0 2048.000000 511.000000"
 preserveAspectRatio="xMidYMid meet">

<g transform="translate(0.000000,511.000000) scale(0.100000,-0.100000)"
fill="#000000" stroke="none">
<path fill="#C62828" d="M550 4964 c-99 -21 -184 -68 -260 -143 -72 -72 -110 -132 -141 -225
-94 -287 78 -606 374 -691 82 -24 217 -22 306 5 264 78 431 356 376 625 -24
118 -66 197 -149 281 -137 137 -317 189 -506 148z"/>
<path fill="#2E8057" d="M1417 4914 c-15 -8 -32 -26 -37 -40 -6 -15 -10 -204 -10 -449 l0
-423 26 -31 26 -31 436 0 436 0 28 27 28 27 0 436 c0 464 2 449 -50 484 -22
14 -70 16 -440 16 -351 -1 -419 -3 -443 -16z"/>
<path fill="#2E8057" d="M2625 4923 c-11 -3 -30 -14 -42 -26 l-23 -20 0 -447 0 -446 25 -22
c25 -22 28 -22 456 -22 289 0 437 4 451 11 45 24 48 53 48 475 0 263 -4 409
-11 434 -21 71 -17 70 -476 69 -224 -1 -417 -3 -428 -6z"/>
<path d="M5955 3750 c-119 -39 -185 -127 -185 -249 0 -96 16 -138 80 -202 41
-41 86 -71 177 -117 67 -34 131 -74 142 -88 50 -64 7 -146 -83 -159 -56 -9
-144 7 -236 42 -112 42 -101 49 -98 -63 l3 -99 70 -24 c95 -32 254 -40 345
-17 153 39 240 153 227 297 -10 117 -76 188 -258 279 -136 69 -174 105 -165
158 15 94 120 113 295 51 30 -10 56 -17 58 -16 5 5 63 149 63 157 0 4 -37 20
-82 35 -113 38 -265 44 -353 15z"/>
<path d="M10754 3751 c-200 -57 -304 -223 -304 -486 0 -325 167 -505 470 -505
298 0 470 185 470 505 0 260 -115 438 -316 489 -83 21 -241 20 -320 -3z m285
-181 c86 -44 124 -135 125 -300 1 -136 -17 -201 -72 -262 -46 -51 -89 -68
-173 -68 -173 0 -259 124 -246 355 10 168 54 250 157 286 66 24 151 19 209
-11z"/>
<path d="M4240 3265 l0 -495 105 0 105 0 -2 493 -3 492 -102 3 -103 3 0 -496z"/>
<path d="M4695 3748 c-3 -7 -4 -229 -3 -493 l3 -480 94 -3 93 -3 -3 369 c-3
268 -1 365 7 353 9 -14 237 -408 372 -643 l44 -78 134 0 134 0 -2 493 -3 492
-93 3 -94 3 4 -365 c1 -201 0 -362 -3 -358 -7 7 -46 74 -299 510 l-123 212
-129 0 c-94 0 -130 -3 -133 -12z"/>
<path d="M6490 3670 l0 -90 130 0 130 0 0 -405 0 -405 105 0 105 0 0 405 0
405 135 0 135 0 0 90 0 90 -370 0 -370 0 0 -90z"/>
<path d="M7385 3748 c-3 -7 -4 -229 -3 -493 l3 -480 103 -3 102 -3 0 496 0
495 -100 0 c-71 0 -102 -4 -105 -12z"/>
<path d="M7747 3753 c-4 -3 -7 -44 -7 -90 l0 -83 135 0 135 0 0 -405 0 -405
105 0 105 0 0 405 0 405 135 0 136 0 -3 88 -3 87 -366 3 c-201 1 -368 -1 -372
-5z"/>
<path d="M8647 3753 c-12 -11 -8 -668 4 -725 14 -68 47 -124 102 -175 63 -58
140 -85 262 -90 202 -10 341 60 409 206 20 44 21 63 24 419 l3 372 -105 0
-105 0 -3 -352 c-3 -332 -4 -355 -23 -387 -38 -64 -65 -76 -170 -76 -108 0
-136 13 -170 81 -19 36 -20 62 -23 387 l-3 347 -98 0 c-54 0 -101 -3 -104 -7z"/>
<path d="M9597 3753 c-4 -3 -7 -44 -7 -90 l0 -83 135 0 135 0 0 -405 0 -405
105 0 105 0 0 405 0 405 135 0 135 0 0 90 0 90 -368 0 c-203 0 -372 -3 -375
-7z"/>
<path d="M11957 3753 c-4 -3 -7 -226 -7 -495 l0 -488 105 0 105 0 0 195 0 195
165 0 165 0 0 85 0 85 -165 0 -165 0 0 125 0 125 178 2 177 3 0 85 0 85 -276
3 c-151 1 -278 -1 -282 -5z"/>
<path d="M12717 3753 c-4 -3 -7 -226 -7 -495 l0 -488 285 0 285 0 0 90 0 90
-180 0 -180 0 0 125 0 125 170 0 170 0 0 85 0 85 -170 0 -170 0 0 105 0 105
180 0 180 0 0 90 0 90 -278 0 c-153 0 -282 -3 -285 -7z"/>
<path d="M13485 3749 c-3 -8 -4 -230 -3 -494 l3 -480 205 1 c160 0 219 4 269
17 147 39 255 130 307 256 23 56 28 85 32 187 2 70 0 143 -7 173 -35 162 -148
280 -316 329 -73 21 -483 30 -490 11z m480 -204 c92 -58 139 -200 115 -350
-27 -172 -117 -245 -302 -245 l-78 0 0 316 0 316 108 -3 c100 -4 113 -7 157
-34z"/>
<path d="M14510 3265 l0 -495 285 0 286 0 -3 88 -3 87 -177 3 -178 2 0 125 0
125 165 0 165 0 0 85 0 85 -165 0 -165 0 0 105 0 105 178 2 177 3 0 85 0 85
-282 3 -283 2 0 -495z"/>
<path d="M15280 3265 l0 -495 105 0 105 0 0 190 0 191 57 -3 57 -3 116 -187
115 -187 118 -1 c109 0 117 1 107 18 -5 9 -70 106 -144 214 l-134 197 43 25
c52 31 92 76 118 135 16 36 18 60 15 125 -7 126 -43 182 -149 231 -73 33 -166
44 -366 45 l-163 0 0 -495z m400 299 c65 -26 87 -93 56 -168 -19 -45 -72 -68
-168 -74 l-78 -5 0 132 0 131 75 0 c45 0 90 -6 115 -16z"/>
<path d="M16413 3728 c-12 -35 -83 -240 -233 -663 -51 -143 -94 -268 -97 -278
-5 -16 3 -17 108 -15 l113 3 36 115 36 115 179 0 180 0 31 -106 c17 -59 34
-111 38 -118 7 -11 226 -17 226 -5 0 3 -49 143 -109 312 -60 169 -138 388
-173 487 l-63 180 -131 3 -130 3 -11 -33z m206 -340 c34 -108 61 -199 61 -202
0 -3 -57 -6 -126 -6 -125 0 -125 0 -118 22 23 74 114 380 114 385 0 19 14 -21
69 -199z"/>
<path d="M17157 3753 c-4 -3 -7 -226 -7 -495 l0 -488 305 0 305 0 0 90 0 90
-200 0 -200 0 0 405 0 405 -98 0 c-54 0 -102 -3 -105 -7z"/>
<path fill="#2E8057" d="M234 3729 c-11 -6 -28 -23 -37 -39 -15 -25 -17 -73 -17 -443 0 -400
1 -417 20 -450 14 -24 30 -37 52 -41 39 -8 806 -8 845 0 17 3 38 19 51 38 22
32 22 35 22 451 0 417 0 419 -22 451 -13 18 -32 35 -43 38 -38 10 -849 5 -871
-5z"/>
<path fill="#2E8057" d="M1399 3710 l-30 -29 3 -440 3 -440 23 -23 23 -23 421 -3 c306 -2 430
1 451 9 58 24 57 14 57 487 l0 434 -29 29 -29 29 -432 0 -432 0 -29 -30z"/>
<path fill="#2E8057" d="M215 2515 l-35 -34 0 -414 c0 -462 1 -466 66 -493 50 -21 841 -16
836 5 -3 12 0 12 12 1 12 -9 16 -9 16 -1 0 7 4 9 10 6 5 -3 19 9 30 27 20 32
20 46 18 456 l-3 424 -33 29 -32 29 -425 0 -426 0 -34 -35z"/>
<path fill="#2E8057" d="M1405 2524 c-24 -21 -27 -27 -15 -34 14 -9 7 -14 -12 -11 -5 0 -8
-190 -8 -423 0 -373 2 -426 16 -440 8 -9 12 -16 7 -16 -4 -1 8 -9 27 -20 33
-18 60 -19 440 -20 351 0 409 2 428 16 12 8 22 12 22 7 1 -4 10 3 20 16 19 22
20 40 20 455 0 460 2 445 -50 480 -22 14 -71 16 -445 16 l-420 0 -30 -26z"/>
<path fill="#2E8057" d="M2591 2524 l-31 -26 0 -435 c0 -292 4 -441 11 -455 24 -45 53 -48
475 -48 443 0 453 1 480 66 20 48 20 809 0 857 -28 68 -19 67 -485 67 l-419 0
-31 -26z"/>
<path d="M6075 2333 c-15 -27 -39 -63 -53 -81 -28 -38 -19 -58 21 -48 24 6
167 148 167 166 0 6 -24 10 -54 10 -54 0 -54 0 -81 -47z"/>
<path d="M6732 2334 c-15 -10 -22 -25 -22 -48 0 -39 15 -56 50 -56 35 0 50 17
50 56 0 29 -27 64 -50 64 -3 0 -16 -7 -28 -16z"/>
<path d="M8418 2320 c-154 -46 -195 -218 -79 -331 36 -35 70 -54 146 -84 59
-23 113 -51 134 -71 32 -29 36 -38 36 -84 0 -46 -4 -55 -32 -80 -18 -16 -52
-34 -75 -41 -51 -13 -156 -6 -218 16 -66 23 -72 21 -68 -27 3 -38 6 -42 43
-56 60 -22 237 -22 301 1 122 43 178 171 123 285 -27 54 -76 87 -204 137 -115
44 -155 82 -155 148 0 23 7 53 16 66 35 50 136 65 244 36 30 -8 60 -15 65 -15
11 0 40 68 33 75 -1 2 -31 10 -64 19 -65 17 -200 20 -246 6z"/>
<path d="M4240 1935 l0 -385 215 0 215 0 0 45 0 45 -170 0 -171 0 3 138 3 137
158 3 157 3 0 39 0 40 -160 0 -160 0 0 120 0 120 170 0 170 0 0 40 0 40 -215
0 -215 0 0 -385z"/>
<path d="M7014 2201 c-15 -53 -20 -60 -60 -79 -30 -15 -44 -28 -44 -42 0 -17
7 -20 45 -20 l45 0 0 -200 c0 -210 6 -246 46 -282 32 -28 106 -43 161 -32 45
8 48 11 51 42 l3 32 -65 0 c-58 0 -67 3 -85 26 -20 25 -21 40 -21 220 l0 194
80 0 80 0 0 35 0 35 -80 0 -80 0 0 65 0 65 -30 0 c-28 0 -31 -4 -46 -59z"/>
<path d="M10177 2202 c-15 -53 -20 -60 -57 -77 -30 -14 -40 -24 -40 -42 0 -20
5 -23 40 -23 l40 0 0 -197 c0 -224 10 -267 70 -298 39 -20 115 -29 155 -17 25
7 31 14 33 43 l3 34 -46 -3 c-116 -10 -125 8 -125 253 l0 185 85 0 85 0 0 35
0 35 -85 0 -85 0 0 65 c0 65 0 65 -28 65 -26 0 -30 -5 -45 -58z"/>
<path d="M4905 2128 c-87 -30 -129 -101 -106 -177 16 -54 62 -90 177 -136 62
-25 104 -49 120 -68 27 -32 28 -36 14 -71 -25 -66 -170 -76 -303 -21 -16 7
-18 3 -15 -35 3 -40 6 -44 43 -58 25 -10 75 -15 135 -15 107 -1 147 12 194 62
24 25 30 41 33 88 7 100 -15 120 -226 209 -64 27 -91 51 -91 82 0 15 4 32 8
38 25 39 135 49 225 21 l49 -16 13 32 c7 18 11 35 9 39 -19 31 -214 49 -279
26z"/>
<path d="M5515 2121 c-22 -10 -48 -28 -59 -39 -23 -27 -36 -20 -36 19 0 27 -2
29 -40 29 l-40 0 2 -417 3 -418 43 -3 42 -3 0 167 0 167 23 -20 c92 -85 231
-82 318 6 56 56 79 121 79 227 0 148 -41 236 -130 282 -56 28 -147 30 -205 3z
m175 -87 c54 -46 65 -78 65 -189 0 -85 -4 -107 -23 -143 -30 -56 -73 -82 -138
-82 -64 0 -111 29 -139 85 -15 32 -19 61 -19 140 0 164 39 215 161 215 52 0
66 -4 93 -26z"/>
<path d="M6462 2123 c-18 -9 -48 -33 -66 -55 l-33 -39 -7 51 c-7 49 -7 50 -41
50 l-35 0 0 -290 0 -290 39 0 39 0 4 183 c3 162 6 186 26 223 39 76 109 115
181 101 26 -5 29 -3 35 25 11 57 10 58 -51 58 -33 0 -72 -8 -91 -17z"/>
<path d="M7508 2126 c-114 -41 -168 -132 -168 -281 0 -104 22 -167 78 -225 72
-74 164 -96 271 -64 66 19 122 69 152 137 33 71 34 228 2 297 -26 57 -99 125
-149 139 -53 15 -141 13 -186 -3z m190 -86 c52 -32 76 -97 76 -200 -1 -96 -15
-139 -63 -185 -27 -25 -41 -30 -94 -33 -115 -6 -174 54 -184 191 -9 117 31
216 97 240 39 14 136 6 168 -13z"/>
<path d="M8983 2119 c-65 -20 -71 -28 -53 -74 9 -24 11 -25 38 -11 37 19 130
35 169 29 43 -7 79 -44 87 -91 12 -72 12 -72 -51 -72 -141 0 -255 -36 -295
-93 -30 -42 -36 -129 -11 -177 53 -102 228 -120 324 -33 l38 35 6 -29 c12 -50
14 -53 45 -53 l31 0 -3 244 c-3 228 -4 246 -24 273 -52 71 -174 92 -301 52z
m219 -422 c-30 -52 -76 -77 -142 -77 -43 0 -64 5 -83 20 -54 43 -41 132 26
167 19 10 67 19 122 22 l90 6 3 -53 c2 -38 -2 -62 -16 -85z"/>
<path d="M9665 2121 c-22 -10 -48 -28 -59 -39 -23 -27 -36 -20 -36 19 0 27 -2
29 -40 29 l-40 0 0 -290 0 -290 45 0 45 0 0 183 c1 215 13 266 70 305 30 21
45 23 107 20 86 -4 107 -19 122 -89 6 -28 11 -133 11 -235 l0 -185 43 3 42 3
3 180 c3 226 -8 303 -52 349 -53 56 -180 74 -261 37z"/>
<path d="M10678 2131 c-91 -30 -149 -103 -169 -213 -16 -88 -1 -191 37 -256
71 -120 236 -156 365 -79 77 46 113 118 117 237 4 100 -6 147 -47 212 -44 69
-104 101 -200 104 -42 2 -88 -1 -103 -5z m183 -94 c55 -36 74 -86 74 -197 0
-83 -3 -101 -25 -140 -31 -55 -76 -80 -146 -80 -91 0 -147 55 -164 160 -18
118 16 231 78 265 44 23 143 19 183 -8z"/>
<path d="M6005 2117 c-3 -7 -4 -136 -3 -287 l3 -275 43 -3 42 -3 0 290 0 291
-40 0 c-24 0 -43 -5 -45 -13z"/>
<path d="M6720 1839 l0 -290 43 3 42 3 3 288 2 287 -45 0 -45 0 0 -291z"/>
<path fill="#2E8057" d="M231 1346 c-50 -28 -50 -32 -51 -476 0 -376 2 -418 17 -440 35 -51
22 -49 477 -50 l428 0 34 34 34 34 0 417 c0 454 -1 458 -57 484 -38 17 -851
14 -882 -3z"/>
<path fill="#2E8057" d="M1430 1346 c-6 -8 -18 -12 -25 -10 -31 12 -36 -63 -33 -489 l3 -419
28 -24 28 -24 429 0 429 0 28 24 28 24 3 437 3 436 -30 29 -29 30 -425 0
c-357 0 -426 -2 -437 -14z m10 -66 c0 -5 -4 -10 -10 -10 -5 0 -10 5 -10 10 0
6 5 10 10 10 6 0 10 -4 10 -10z"/>
<path d="M10240 760 l0 -400 39 0 39 0 4 188 c6 223 16 260 81 294 59 29 147
22 185 -15 l27 -27 3 -221 3 -220 42 3 42 3 0 220 c0 202 -2 223 -21 260 -29
57 -87 85 -176 85 -78 0 -127 -17 -163 -56 l-25 -27 0 157 0 156 -40 0 -40 0
0 -400z"/>
<path d="M14072 1010 c2 -83 1 -150 -1 -150 -2 0 -18 13 -36 29 -56 49 -182
60 -253 22 -86 -47 -136 -194 -113 -334 15 -89 33 -128 81 -171 78 -70 229
-69 294 3 26 29 34 26 38 -11 3 -30 6 -33 38 -33 l35 0 3 398 2 397 -45 0 -46
0 3 -150z m-71 -173 c51 -34 72 -99 67 -212 -4 -103 -18 -139 -68 -173 -48
-33 -146 -28 -186 8 -93 86 -76 335 26 387 42 21 122 16 161 -10z"/>
<path d="M12099 1106 c-25 -53 24 -108 70 -79 20 12 27 69 10 89 -19 24 -68
18 -80 -10z"/>
<path d="M18639 1106 c-25 -53 24 -108 70 -79 20 12 27 69 10 89 -19 24 -68
18 -80 -10z"/>
<path d="M19329 1103 c-14 -37 6 -77 42 -81 35 -4 51 19 47 65 -3 36 -5 38
-41 41 -33 3 -38 0 -48 -25z"/>
<path d="M4430 1103 c-137 -48 -213 -159 -227 -330 -15 -185 55 -328 189 -388
56 -25 74 -28 163 -28 55 0 119 6 143 12 41 11 42 13 42 52 0 32 -3 40 -14 36
-8 -3 -50 -11 -93 -17 -147 -20 -239 17 -296 119 -26 46 -31 66 -35 150 -8
163 38 261 144 311 58 27 157 29 224 6 25 -9 50 -16 56 -16 16 0 46 68 33 76
-56 34 -251 44 -329 17z"/>
<path d="M8693 1101 c-150 -52 -237 -217 -219 -418 14 -151 75 -247 188 -298
56 -25 74 -28 163 -28 55 0 119 6 143 12 41 11 42 13 42 52 0 32 -3 40 -14 36
-8 -3 -50 -11 -93 -17 -148 -20 -242 18 -298 120 -29 53 -30 60 -30 175 0 111
2 124 27 171 30 57 72 97 127 120 47 21 154 21 210 0 24 -9 49 -16 55 -16 18
0 48 68 35 76 -58 36 -251 45 -336 15z"/>
<path d="M15210 734 l0 -375 43 3 42 3 3 373 2 372 -45 0 -45 0 0 -376z"/>
<path d="M15527 1053 c-2 -5 -10 -32 -18 -62 -12 -49 -17 -55 -56 -72 -31 -13
-43 -24 -43 -39 0 -17 6 -20 40 -20 l40 0 0 -177 c0 -98 5 -196 10 -218 18
-81 103 -125 205 -107 36 7 40 10 43 40 l3 32 -59 0 c-44 0 -66 5 -83 19 -24
19 -24 23 -27 215 l-3 196 80 0 81 0 0 35 0 35 -80 0 -80 0 0 65 c0 62 -1 65
-24 65 -14 0 -27 -3 -29 -7z"/>
<path d="M5673 931 c-39 -10 -82 -36 -104 -64 -15 -19 -16 -18 -23 22 -6 39
-8 41 -41 41 l-35 0 0 -286 0 -285 43 3 42 3 5 200 c6 225 14 255 75 281 51
21 117 18 148 -6 39 -31 47 -77 47 -287 l0 -193 39 0 39 0 4 198 c4 219 11
246 71 282 57 35 161 20 183 -27 5 -10 11 -115 14 -233 l5 -215 43 -3 42 -3 0
212 c0 129 -4 226 -11 250 -25 83 -120 129 -223 110 -51 -9 -112 -44 -127 -73
-10 -19 -12 -19 -29 9 -31 51 -133 82 -207 64z"/>
<path d="M6637 926 c-26 -7 -60 -25 -76 -40 -35 -33 -39 -33 -43 7 -3 29 -6
32 -38 32 l-35 0 -3 -407 -2 -408 45 0 45 0 1 163 c0 89 3 157 5 150 9 -20 67
-51 118 -63 80 -18 149 2 206 59 56 56 75 113 75 226 0 104 -18 165 -67 219
-55 63 -142 86 -231 62z m133 -88 c54 -37 74 -88 74 -188 0 -146 -52 -220
-154 -220 -59 0 -109 26 -135 70 -28 49 -29 238 -2 288 39 71 148 96 217 50z"/>
<path d="M7837 930 c-99 -17 -152 -75 -144 -158 6 -57 47 -99 129 -132 163
-65 203 -101 176 -157 -7 -15 -24 -33 -38 -40 -37 -19 -156 -15 -217 6 l-53
18 0 -39 c0 -36 3 -40 38 -55 25 -11 68 -16 133 -16 83 0 102 3 139 24 56 31
81 66 87 121 10 85 -33 130 -179 187 -43 17 -87 36 -97 43 -25 16 -43 55 -36
79 15 47 124 63 220 34 27 -8 50 -13 51 -12 1 1 9 17 18 35 17 32 16 32 -10
42 -23 9 -151 31 -164 29 -3 -1 -26 -5 -53 -9z"/>
<path d="M9908 930 c-126 -21 -198 -125 -198 -284 0 -192 88 -290 261 -289
100 0 134 16 134 63 0 26 -4 34 -15 32 -133 -31 -188 -26 -236 22 -38 38 -54
89 -54 171 0 165 84 240 230 205 58 -14 70 -8 73 35 2 22 -3 29 -23 35 -48 13
-125 18 -172 10z"/>
<path d="M11048 930 c-126 -22 -198 -126 -198 -286 0 -122 46 -212 132 -259
71 -39 174 -40 245 -4 56 29 108 93 124 152 16 61 14 177 -5 234 -41 124 -157
187 -298 163z m142 -92 c67 -46 75 -67 75 -192 0 -104 -2 -115 -25 -149 -66
-97 -214 -90 -274 13 -17 29 -21 52 -21 135 0 114 15 152 75 192 46 32 124 32
170 1z"/>
<path d="M11671 929 c-110 -22 -178 -116 -188 -259 -10 -140 43 -247 147 -293
54 -25 192 -27 255 -4 37 13 40 17 43 54 l3 41 -41 -14 c-61 -21 -149 -28
-197 -15 -49 13 -97 64 -112 118 -22 78 -34 73 185 73 l196 0 -7 73 c-16 168
-128 257 -284 226z m133 -90 c34 -27 56 -70 56 -109 l0 -30 -145 0 -145 0 6
28 c12 49 46 101 78 116 46 23 118 20 150 -5z"/>
<path d="M12567 927 c-21 -7 -58 -32 -82 -56 l-44 -43 -3 48 c-3 49 -3 49 -38
49 l-35 0 0 -280 0 -280 43 -3 42 -3 0 173 c1 228 15 269 108 310 31 14 54 18
81 13 39 -6 39 -6 43 32 3 21 5 39 4 39 -7 10 -90 10 -119 1z"/>
<path d="M12956 929 c-109 -18 -184 -114 -194 -247 -10 -140 37 -247 130 -297
92 -50 230 -35 301 33 112 106 109 353 -5 459 -49 46 -144 68 -232 52z m140
-85 c67 -32 103 -141 84 -258 -17 -105 -71 -156 -168 -156 -61 0 -109 30 -137
85 -29 58 -29 215 1 265 43 75 139 102 220 64z"/>
<path d="M14500 931 c-125 -26 -196 -134 -194 -296 1 -159 75 -253 213 -276
64 -10 168 1 216 23 20 9 25 18 25 49 l0 38 -42 -15 c-97 -34 -213 -28 -262
15 -26 23 -53 80 -57 121 l-4 35 194 3 194 2 -6 74 c-8 106 -58 188 -131 216
-35 13 -109 18 -146 11z m115 -83 c31 -14 61 -61 70 -110 l7 -38 -146 0 c-140
0 -146 1 -146 20 0 35 39 100 73 120 36 22 103 26 142 8z"/>
<path d="M16650 931 c-42 -9 -77 -26 -107 -53 l-22 -20 -8 33 c-8 29 -14 34
-41 37 l-32 3 0 -410 0 -411 40 0 40 0 0 160 0 161 38 -30 c45 -37 122 -54
187 -42 116 22 176 110 183 268 8 185 -60 289 -198 306 -25 3 -61 2 -80 -2z
m107 -88 c51 -24 83 -96 83 -188 0 -91 -14 -139 -54 -182 -28 -31 -40 -37 -88
-41 -120 -10 -171 53 -172 212 0 155 42 215 152 216 24 0 60 -8 79 -17z"/>
<path d="M17240 929 c-111 -22 -180 -119 -188 -262 -7 -144 35 -235 134 -283
51 -25 68 -28 143 -27 48 1 104 8 126 16 37 13 40 17 43 54 l3 41 -42 -15
c-23 -8 -71 -17 -106 -20 -119 -11 -195 43 -209 150 l-7 47 192 0 191 0 0 58
c0 82 -16 128 -62 178 -54 59 -130 81 -218 63z m127 -89 c38 -23 50 -43 59
-99 l7 -41 -148 0 -147 0 7 33 c12 51 34 86 68 107 42 26 112 26 154 0z"/>
<path d="M17863 928 c-25 -5 -57 -23 -77 -42 l-35 -32 -8 35 c-7 31 -13 36
-41 39 l-32 3 0 -285 0 -286 39 0 39 0 4 193 c5 216 13 252 70 287 58 35 161
20 184 -27 5 -10 11 -115 14 -233 l5 -215 42 -3 42 -3 3 203 c3 180 5 207 23
235 33 56 125 81 189 52 49 -23 56 -58 56 -284 l0 -206 43 3 42 3 3 184 c1
101 -2 209 -8 240 -18 102 -71 144 -179 144 -76 0 -128 -20 -165 -63 l-23 -28
-27 35 c-15 19 -38 38 -49 42 -40 15 -111 19 -154 9z"/>
<path d="M19115 929 c-26 -7 -56 -25 -87 -56 l-47 -46 -3 49 c-3 49 -3 49 -38
49 l-35 0 0 -280 0 -280 42 -3 41 -3 4 189 c3 188 3 189 31 231 36 54 101 86
156 76 39 -6 39 -6 43 32 3 21 5 39 4 39 -7 8 -80 10 -111 3z"/>
<path d="M19795 929 c-22 -5 -57 -23 -77 -40 l-37 -29 -9 32 c-7 28 -13 34
-40 36 l-32 3 0 -285 0 -286 40 0 40 0 0 178 c1 209 13 262 69 299 66 44 168
23 190 -38 7 -19 11 -112 11 -235 l0 -204 44 0 45 0 3 203 c2 167 6 207 20
233 21 39 73 64 132 64 36 0 52 -6 78 -29 l33 -29 3 -222 3 -221 42 3 42 3 3
184 c1 101 -2 209 -8 240 -18 102 -71 144 -179 144 -73 0 -124 -18 -162 -59
l-23 -24 -36 35 c-26 26 -49 37 -89 45 -30 5 -56 10 -60 9 -3 -1 -24 -5 -46
-10z"/>
<path d="M4970 914 c-59 -21 -62 -25 -49 -61 l10 -31 56 19 c61 21 143 25 174
9 27 -15 49 -63 49 -110 l0 -40 -73 0 c-129 0 -242 -42 -272 -100 -21 -40 -19
-139 2 -170 44 -63 119 -88 211 -70 50 9 122 52 122 71 0 5 4 9 9 9 5 0 12
-18 16 -41 7 -38 9 -40 38 -37 l32 3 0 225 c0 207 -2 228 -20 259 -37 62 -66
76 -168 78 -64 2 -106 -2 -137 -13z m238 -326 c-9 -106 -51 -150 -152 -156
-59 -4 -67 -2 -90 21 -20 20 -26 36 -26 67 0 58 39 96 106 105 27 4 54 8 59
10 6 2 32 4 59 4 l48 1 -4 -52z"/>
<path d="M7082 696 c3 -257 4 -260 70 -309 64 -48 211 -40 272 14 39 34 46 36
46 10 0 -38 11 -51 46 -51 l34 0 -2 283 -3 282 -42 3 -41 3 -4 -198 c-3 -214
-8 -238 -60 -276 -34 -25 -126 -34 -168 -17 -51 21 -55 38 -60 270 l-5 215
-43 3 -43 3 3 -235z"/>
<path d="M9240 914 c-59 -21 -62 -25 -49 -61 l10 -31 56 19 c80 27 154 25 189
-4 22 -19 28 -34 32 -80 l4 -57 -74 0 c-131 0 -243 -41 -274 -101 -32 -63 -14
-174 35 -208 72 -51 201 -47 271 9 21 16 40 30 43 30 3 0 8 -16 11 -36 7 -32
10 -35 39 -32 l32 3 3 195 c1 110 -2 217 -8 246 -12 55 -44 95 -93 113 -41 16
-175 12 -227 -5z m238 -334 c-7 -99 -63 -150 -166 -150 -69 0 -102 29 -102 90
0 58 39 96 106 105 27 4 54 8 59 10 6 2 32 4 59 4 l48 1 -4 -60z"/>
<path d="M12100 645 l0 -286 43 3 42 3 0 280 0 280 -42 3 -43 3 0 -286z"/>
<path d="M15938 915 c-57 -18 -63 -28 -48 -65 l12 -28 54 19 c59 21 144 25
176 8 25 -13 48 -68 48 -114 l0 -35 -70 0 c-130 0 -230 -33 -271 -91 -17 -24
-22 -46 -22 -88 0 -112 57 -164 178 -164 61 0 80 4 119 27 26 15 50 34 53 42
8 21 20 8 27 -31 6 -31 11 -35 36 -35 l30 0 0 228 c0 250 -5 273 -63 316 -37
27 -188 33 -259 11z m239 -330 c-11 -105 -64 -155 -164 -155 -72 0 -108 31
-107 89 3 82 66 116 228 120 l49 1 -6 -55z"/>
<path d="M18640 645 l0 -286 43 3 42 3 0 280 0 280 -42 3 -43 3 0 -286z"/>
<path d="M19337 924 c-4 -4 -7 -133 -7 -286 l0 -279 43 3 42 3 0 280 0 280
-35 3 c-20 2 -39 0 -43 -4z"/>
</g>
</svg>
