<?xml version="1.0" standalone="no"?>
<!DOCTYPE svg PUBLIC "-//W3C//DTD SVG 20010904//EN"
 "http://www.w3.org/TR/2001/REC-SVG-20010904/DTD/svg10.dtd">
<svg version="1.0" xmlns="http://www.w3.org/2000/svg"
 width="1080.000000pt" height="1080.000000pt" viewBox="0 0 1080.000000 1080.000000"
 preserveAspectRatio="xMidYMid meet">

<g transform="translate(0.000000,1080.000000) scale(0.100000,-0.100000)"
stroke="none">
<!-- Forma superior (verde) -->
<path fill="#2E8057" d="M4565 9965 c-1097 -162 -1873 -1085 -1832 -2180 9 -236 46 -430 122
-642 39 -109 60 -133 114 -133 41 0 62 19 142 124 290 387 787 670 1287 732
513 63 1034 -76 1422 -379 250 -196 424 -411 569 -704 81 -163 105 -184 173
-152 30 13 127 164 194 299 397 806 232 1796 -405 2430 -169 169 -360 304
-576 410 -304 148 -583 211 -930 209 -104 -1 -230 -7 -280 -14z"/>
<!-- Forma direita (vermelha) -->
<path fill="#C62828" d="M8019 8299 c-94 -10 -310 -54 -398 -81 -86 -27 -247 -91 -321 -128
-67 -34 -95 -73 -85 -120 7 -34 18 -43 117 -104 373 -228 674 -609 816 -1032
202 -604 101 -1258 -275 -1769 -36 -49 -125 -148 -197 -220 -134 -133 -241
-216 -403 -312 -51 -30 -97 -63 -103 -73 -18 -33 -12 -79 14 -105 29 -28 239
-132 346 -170 265 -94 609 -140 875 -116 670 60 1243 397 1610 947 249 371
380 869 346 1311 -81 1048 -867 1864 -1902 1973 -109 11 -330 11 -440 -1z"/>
<!-- Forma esquerda (verde) -->
<path fill="#2E8057" d="M2306 6719 c-250 -26 -541 -116 -766 -236 -600 -320 -998 -883 -1107
-1569 -23 -146 -23 -466 0 -613 74 -465 276 -867 600 -1192 301 -303 653 -490
1102 -585 99 -21 157 -27 335 -31 290 -7 458 16 719 99 136 43 342 136 378
170 25 23 31 75 13 108 -5 10 -31 30 -57 45 -386 221 -669 535 -841 934 -257
598 -199 1285 155 1821 170 257 358 438 621 599 107 66 122 82 122 128 0 48
-28 73 -144 129 -202 97 -461 171 -678 194 -109 11 -339 11 -452 -1z"/>
<!-- Forma inferior (verde) -->
<path fill="#2E8057" d="M4356 4097 c-13 -13 -48 -66 -79 -118 -348 -591 -378 -1347 -79
-1971 211 -441 529 -767 957 -981 199 -100 367 -157 585 -198 156 -30 498 -37
656 -15 811 116 1473 663 1728 1426 78 236 108 424 108 685 0 235 -32 437
-104 655 -64 194 -87 230 -150 230 -43 0 -58 -12 -108 -86 -91 -134 -272 -322
-410 -425 -373 -279 -800 -413 -1260 -396 -368 14 -687 118 -996 326 -283 189
-495 430 -649 734 -32 61 -67 122 -78 135 -28 31 -90 30 -121 -1z"/>
</g>
</svg>
